#!OML:ASF X:\für Bonn\!DataBase\2005_08_12_Daniel\c3d\Daniel.ASF
:FULLY-SPECIFIED
:DEGREES
49
root 0.639228 12.8576 -0.848804 10.5005 -88.0872 -29.552
lowerback 42.3338 -2.81527 4.06412
upperback 3.27764 -2.78026 -2.33108
thorax -17.0537 -1.77424 -3.28217
lowerneck 8.99327 1.47217 0.440201
upperneck 0.090116 1.92445 -0.936762
head -1.47588 0.95848 -0.442741
rclavicle 2.28602e-014 1.03368e-014
rhumerus 62.8195 -0.507709 -100.746
rradius 7.97031
rwrist 63.6146
rhand -19.1478 8.72173
rfingers 7.12502
rthumb 7.16252 -21.1371
lclavicle 2.28602e-014 1.03368e-014
lhumerus 67.2047 7.61116 113.734
lradius 7.94771
lwrist -86.6742
lhand -17.6062 0.0484111
lfingers 7.12502
lthumb 8.65033 29.8512
rfemur -29.5043 -29.3301 -2.32355
rtibia 98.6237
rfoot -13.2652 33.1702
rtoes -3.78535
lfemur -34.1185 23.9389 1.35656
ltibia 97.9304
lfoot -25.4058 -33.8135
ltoes 4.45925
50
root 0.647282 12.6671 -0.839819 10.2106 -88.1422 -29.5087
lowerback 42.7419 -2.82901 4.07805
upperback 3.34663 -2.79476 -2.34314
thorax -17.107 -1.78617 -3.28535
lowerneck 9.11638 1.5009 0.409775
upperneck -0.0475912 1.96052 -0.910218
head -1.54265 0.976671 -0.433224
rclavicle 2.08724e-015 1.70955e-014
rhumerus 62.9317 -0.550845 -100.778
rradius 8.20614
rwrist 63.772
rhand -19.1439 8.89088
rfingers 7.12502
rthumb 7.16628 -20.9678
lclavicle 2.08724e-015 1.70955e-014
lhumerus 67.3246 7.75101 114.046
lradius 7.99782
lwrist -86.9883
lhand -17.615 0.0503796
lfingers 7.12502
lthumb 8.64192 29.8535
rfemur -30.4896 -29.978 -3.13485
rtibia 100.742
rfoot -12.8793 33.9447
rtoes -3.62402
lfemur -35.0966 24.8539 2.03313
ltibia 99.9918
lfoot -24.9094 -34.9336
ltoes 4.78089
51
root 0.654844 12.4739 -0.829827 11.1492 -88.2177 -30.7112
lowerback 43.1624 -2.83797 4.10908
upperback 3.42288 -2.79374 -2.34301
thorax -17.1516 -1.79276 -3.29121
lowerneck 9.22719 1.52733 0.383261
upperneck -0.208079 1.99332 -0.914793
head -1.61462 0.994201 -0.434121
rclavicle 6.36111e-015 -5.96354e-015
rhumerus 63.0371 -0.568492 -100.811
rradius 8.48513
rwrist 63.924
rhand -19.1187 9.05226
rfingers 7.12502
rthumb 7.1906 -20.8056
lclavicle 6.36111e-015 -5.96354e-015
lhumerus 67.4295 7.89684 114.365
lradius 8.10412
lwrist -87.3679
lhand -17.6426 0.0877641
lfingers 7.12502
lthumb 8.61524 29.892
rfemur -31.4403 -30.6661 -3.9448
rtibia 102.832
rfoot -12.5763 34.7014
rtoes -3.57996
lfemur -36.0203 25.8194 2.80121
ltibia 102.039
lfoot -24.3684 -36.0466
ltoes 5.11866
52
root 0.661856 12.2823 -0.819813 11.5148 -88.2914 -31.3586
lowerback 43.6133 -2.84813 4.12594
upperback 3.49743 -2.80144 -2.3475
thorax -17.2067 -1.80258 -3.28972
lowerneck 9.30441 1.56424 0.305064
upperneck -0.33198 2.03629 -0.855821
head -1.66983 1.01513 -0.406008
rclavicle -8.44835e-015 1.59028e-015
rhumerus 63.1578 -0.5807 -100.846
rradius 8.74145
rwrist 64.0503
rhand -19.083 9.21982
rfingers 7.12502
rthumb 7.22505 -20.6368
lclavicle -8.44835e-015 1.59028e-015
lhumerus 67.5183 8.06788 114.676
lradius 8.23601
lwrist -87.7388
lhand -17.7083 0.119816
lfingers 7.12502
lthumb 8.55187 29.9266
rfemur -32.3005 -31.4475 -4.85832
rtibia 104.883
rfoot -12.4817 35.4839
rtoes -3.65486
lfemur -36.8806 26.803 3.58897
ltibia 104.043
lfoot -23.7714 -37.1764
ltoes 5.48265
53
root 0.668292 12.0825 -0.810497 13.1882 -88.3829 -33.3226
lowerback 44.0777 -2.84529 4.1564
upperback 3.56718 -2.78366 -2.33968
thorax -17.2668 -1.80268 -3.2942
lowerneck 9.34519 1.58694 0.2436
upperneck -0.442248 2.06111 -0.83632
head -1.71385 1.02797 -0.391875
rclavicle 2.78299e-015 -3.77691e-014
rhumerus 63.3366 -0.595874 -100.87
rradius 8.9288
rwrist 64.1451
rhand -19.0568 9.38307
rfingers 7.12502
rthumb 7.25032 -20.4727
lclavicle 2.78299e-015 -3.77691e-014
lhumerus 67.6216 8.21957 115.004
lradius 8.35037
lwrist -88.1768
lhand -17.8221 0.168927
lfingers 7.12502
lthumb 8.44201 29.9802
rfemur -33.1563 -32.3081 -5.84146
rtibia 106.95
rfoot -12.2902 36.4013
rtoes -3.79139
lfemur -37.712 27.9293 4.52416
ltibia 106.061
lfoot -23.0283 -38.4156
ltoes 5.98505
54
root 0.673399 11.8783 -0.801187 14.8216 -88.4744 -35.2578
lowerback 44.5335 -2.84394 4.17758
upperback 3.63957 -2.77398 -2.33731
thorax -17.3194 -1.80582 -3.29613
lowerneck 9.43886 1.62216 0.198389
upperneck -0.579834 2.10407 -0.814293
head -1.77619 1.04981 -0.381338
rclavicle -2.48481e-015 -2.78299e-015
rhumerus 63.6303 -0.587389 -100.913
rradius 8.97055
rwrist 64.2102
rhand -19.0634 9.5241
rfingers 7.12502
rthumb 7.24392 -20.3319
lclavicle -2.48481e-015 -2.78299e-015
lhumerus 67.7888 8.33482 115.341
lradius 8.40642
lwrist -88.5904
lhand -17.9156 0.216652
lfingers 7.12502
lthumb 8.3518 30.0315
rfemur -33.9428 -33.3231 -6.99789
rtibia 109.006
rfoot -11.9318 37.4981
rtoes -3.85193
lfemur -38.525 29.1076 5.5204
ltibia 108.081
lfoot -22.3231 -39.6325
ltoes 6.42446
55
root 0.678509 11.6759 -0.792361 17.3035 -88.5468 -38.0719
lowerback 45.0172 -2.85963 4.23226
upperback 3.72254 -2.77178 -2.34413
thorax -17.3672 -1.81503 -3.32134
lowerneck 9.47121 1.65536 0.161487
upperneck -0.668325 2.14594 -0.777777
head -1.8116 1.07043 -0.366494
rclavicle -3.67752e-015 3.57812e-015
rhumerus 64.0295 -0.572417 -100.979
rradius 8.91707
rwrist 64.2478
rhand -19.0406 9.69551
rfingers 7.12502
rthumb 7.26597 -20.1597
lclavicle -3.67752e-015 3.57812e-015
lhumerus 68.0032 8.44253 115.658
lradius 8.42496
lwrist -89.0922
lhand -18.0484 0.328662
lfingers 7.12502
lthumb 8.22365 30.1486
rfemur -34.5981 -34.4373 -8.29359
rtibia 111.011
rfoot -11.2674 38.7365
rtoes -3.65841
lfemur -39.2466 30.2986 6.62018
ltibia 110.059
lfoot -21.5566 -40.8829
ltoes 6.87032
56
root 0.683285 11.4718 -0.783702 20.3158 -88.6241 -41.4189
lowerback 45.4689 -2.86078 4.24913
upperback 3.81197 -2.76517 -2.31863
thorax -17.3903 -1.81903 -3.29322
lowerneck 9.62063 1.69654 0.0625063
upperneck -0.836103 2.18959 -0.77004
head -1.89473 1.09333 -0.352301
rclavicle -1.74931e-014 7.55382e-015
rhumerus 64.4377 -0.504709 -101.009
rradius 8.80714
rwrist 64.2496
rhand -19.121 9.85232
rfingers 7.12502
rthumb 7.18833 -20.0056
lclavicle -1.74931e-014 7.55382e-015
lhumerus 68.2272 8.58328 116.011
lradius 8.46626
lwrist -89.5976
lhand -18.185 0.373571
lfingers 7.12502
lthumb 8.09182 30.1987
rfemur -35.1672 -35.6735 -9.74272
rtibia 112.976
rfoot -10.2467 40.1222
rtoes -3.2628
lfemur -39.9216 31.5483 7.79431
ltibia 112.016
lfoot -20.8086 -42.1267
ltoes 7.28981
57
root 0.686949 11.2674 -0.776233 23.9407 -88.6879 -45.3964
lowerback 45.9026 -2.8657 4.29458
upperback 3.9164 -2.75581 -2.31705
thorax -17.3894 -1.82453 -3.3089
lowerneck 9.79132 1.73082 0.000945821
upperneck -1.02201 2.22911 -0.735757
head -1.988 1.11336 -0.336377
rclavicle -1.50082e-014 1.19271e-014
rhumerus 64.8163 -0.486647 -101.077
rradius 8.74733
rwrist 64.2608
rhand -19.2028 9.99805
rfingers 7.12502
rthumb 7.10943 -19.8625
lclavicle -1.50082e-014 1.19271e-014
lhumerus 68.4316 8.69763 116.329
lradius 8.48101
lwrist -90.1597
lhand -18.3709 0.441507
lfingers 7.12502
lthumb 7.91232 30.2734
rfemur -35.6062 -37.0329 -11.3767
rtibia 114.912
rfoot -8.96558 41.6062
rtoes -2.77024
lfemur -40.5262 32.8599 9.10145
ltibia 113.947
lfoot -19.9136 -43.4283
ltoes 7.70464
58
root 0.689771 11.0625 -0.769435 27.251 -88.7452 -49.0973
lowerback 46.3752 -2.86191 4.29551
upperback 4.02702 -2.75334 -2.28836
thorax -17.3869 -1.83008 -3.26614
lowerneck 9.89333 1.77864 -0.104848
upperneck -1.16929 2.28143 -0.706805
head -2.05675 1.14006 -0.314034
rclavicle -5.46658e-015 -2.38542e-015
rhumerus 65.1416 -0.433051 -101.114
rradius 8.76285
rwrist 64.3003
rhand -19.3145 10.2108
rfingers 7.12502
rthumb 7.00152 -19.6534
lclavicle -5.46658e-015 -2.38542e-015
lhumerus 68.6365 8.83118 116.684
lradius 8.53034
lwrist -90.6942
lhand -18.599 0.503904
lfingers 7.12502
lthumb 7.69222 30.344
rfemur -35.8586 -38.5243 -13.256
rtibia 116.81
rfoot -7.46404 43.1988
rtoes -2.07489
lfemur -41.0278 34.2636 10.5215
ltibia 115.843
lfoot -19.0427 -44.7679
ltoes 8.14415
59
root 0.691756 10.8566 -0.762615 31.5779 -88.7715 -53.8614
lowerback 46.9001 -2.88113 4.36056
upperback 4.13153 -2.75106 -2.28608
thorax -17.408 -1.84119 -3.28532
lowerneck 9.97153 1.80602 -0.151731
upperneck -1.29166 2.31339 -0.682126
head -2.11245 1.15629 -0.301701
rclavicle -1.6201e-014 9.54166e-015
rhumerus 65.4786 -0.427561 -101.181
rradius 8.74582
rwrist 64.3097
rhand -19.4715 10.3727
rfingers 7.12502
rthumb 6.85005 -19.4965
lclavicle -1.6201e-014 9.54166e-015
lhumerus 68.8368 8.93495 117.002
lradius 8.52631
lwrist -91.2241
lhand -18.7907 0.582015
lfingers 7.12502
lthumb 7.50722 30.4288
rfemur -35.8826 -40.1203 -15.3561
rtibia 118.668
rfoot -5.95671 44.8548
rtoes -1.58992
lfemur -41.3945 35.7591 12.1586
ltibia 117.716
lfoot -18.1384 -46.1906
ltoes 8.50876
60
root 0.692542 10.6537 -0.756945 35.5592 -88.7852 -58.3138
lowerback 47.4554 -2.89773 4.40331
upperback 4.24151 -2.75358 -2.26473
thorax -17.4256 -1.85309 -3.26792
lowerneck 9.947 1.84392 -0.234286
upperneck -1.34684 2.35625 -0.646753
head -2.12764 1.17762 -0.278547
rclavicle 8.24956e-015 1.19271e-015
rhumerus 65.8493 -0.390827 -101.23
rradius 8.669
rwrist 64.4413
rhand -19.7221 10.5537
rfingers 7.12502
rthumb 6.60808 -19.3232
lclavicle 8.24956e-015 1.19271e-015
lhumerus 69.0763 9.0445 117.35
lradius 8.48309
lwrist -91.6945
lhand -19.0093 0.636044
lfingers 7.12502
lthumb 7.29613 30.4903
rfemur -35.6897 -41.7631 -17.6809
rtibia 120.471
rfoot -4.47021 46.5092
rtoes -1.08172
lfemur -41.6109 37.3313 13.9471
ltibia 119.536
lfoot -17.3469 -47.6336
ltoes 8.79222
